<svg xmlns="http://www.w3.org/2000/svg" version="1.1" xmlns:xlink="http://www.w3.org/1999/xlink" xmlns:svgjs="http://svgjs.com/svgjs" width="1440" height="700" preserveAspectRatio="none" viewBox="0 0 1440 700"><g mask="url(&quot;#SvgjsMask1011&quot;)" fill="none"><rect width="1440" height="700" x="0" y="0" fill="rgba(121, 125, 225, 1)"></rect><path d="M397.13 823.17C602.54 776.2 681.62 235.75 996.83 230.92 1312.04 226.09 1438.27 431.19 1596.53 433.92" stroke="rgba(255, 255, 255, 1)" stroke-width="2"></path><path d="M840.31 807.1C995.1 740.97 1027.47 259.29 1229.04 257.35 1430.61 255.41 1491.24 571.17 1617.77 593.35" stroke="rgba(255, 255, 255, 1)" stroke-width="2"></path><path d="M522.71 710.82C624.93 705.01 586.02 530.8 884.55 518.99 1183.09 507.18 1411.72 217.31 1608.24 210.99" stroke="rgba(255, 255, 255, 1)" stroke-width="2"></path><path d="M646.98 730.11C830.65 642.55 837.4 68 1094.59 50.36 1351.77 32.72 1422.7 215.62 1542.19 218.36" stroke="rgba(255, 255, 255, 1)" stroke-width="2"></path><path d="M349.6 745.91C511.91 734.78 628.95 423.42 914.59 422.95 1200.22 422.48 1333.18 575.58 1479.57 576.95" stroke="rgba(255, 255, 255, 1)" stroke-width="2"></path></g><defs><mask id="SvgjsMask1011"><rect width="1440" height="700" fill="#ffffff"></rect></mask></defs></svg>