<svg xmlns="http://www.w3.org/2000/svg" version="1.1" xmlns:xlink="http://www.w3.org/1999/xlink" xmlns:svgjs="http://svgjs.com/svgjs" width="300" height="100" preserveAspectRatio="none" viewBox="0 0 300 100"><g mask="url(&quot;#SvgjsMask1015&quot;)" fill="none"><rect width="300" height="100" x="0" y="0" fill="rgba(121, 125, 225, 1)"></rect><path d="M -97.63658600540093,34 C -77.64,40.4 -37.64,67.2 2.363413994599073,66 C 42.36,64.8 62.36,26.4 102.36341399459907,28 C 142.36,29.6 162.36,71.2 202.36341399459909,74 C 242.36,76.8 282.84,42 302.36341399459906,42 C 321.89,42 300.47,67.6 300,74" stroke="rgba(255, 255, 255, 1)" stroke-width="2"></path><path d="M -173.96594567876753,78 C -153.97,66.8 -113.97,24.6 -73.96594567876753,22 C -33.97,19.4 -13.97,61.6 26.034054321232475,65 C 66.03,68.4 86.03,38.6 126.03405432123247,39 C 166.03,39.4 191.24,71 226.03405432123247,67 C 260.83,63 285.21,28.6 300,19" stroke="rgba(255, 255, 255, 1)" stroke-width="2"></path><path d="M -119.27962807758752,53 C -99.28,50.8 -59.28,39.8 -19.279628077587518,42 C 20.72,44.2 40.72,63.8 80.72037192241248,64 C 120.72,64.2 140.72,40.8 180.72037192241248,43 C 220.72,45.2 256.86,78.4 280.7203719224125,75 C 304.58,71.6 296.14,35.8 300,26" stroke="rgba(255, 255, 255, 1)" stroke-width="2"></path><path d="M -180.36875719348905,74 C -160.37,62 -120.37,12.2 -80.36875719348903,14 C -40.37,15.8 -20.37,76.4 19.63124280651097,83 C 59.63,89.6 79.63,48.8 119.63124280651097,47 C 159.63,45.2 183.56,81 219.63124280651095,74 C 255.7,67 283.93,24.4 300,12" stroke="rgba(255, 255, 255, 1)" stroke-width="2"></path></g><defs><mask id="SvgjsMask1015"><rect width="300" height="100" fill="#ffffff"></rect></mask></defs></svg>